<svg xmlns="http://www.w3.org/2000/svg" width="108" height="71" fill="none">
  <g fill="#000" clip-path="url(#a)">
    <path d="M87.778 16.881c0-8.842-7.41-16.036-16.507-16.036-3.793 0-7.922 1.945-12.296 5.778-2.069 1.812-3.862 3.75-5.209 5.31C49.04 6.665 42.696.845 36.368.845c-7.649 0-14.32 5.297-16.055 12.315a15.472 15.472 0 0 0-.453 3.721c0 8.843 7.294 16.037 16.39 16.037 3.792 0 8.04-1.945 12.414-5.778 2.068-1.812 3.862-3.75 5.209-5.31 4.728 5.268 11.07 11.088 17.399 11.088 7.649 0 14.32-5.297 16.055-12.314a15.47 15.47 0 0 0 .453-3.721l-.002-.002Zm-32.743-4.965c1.546-1.744 3.079-3.284 4.562-4.583 4.198-3.679 8.126-5.544 11.674-5.544 8.582 0 15.564 6.77 15.564 15.092 0 1.168-.14 2.334-.418 3.468-.045.131-.617 1.697-2.247 3.22-2.116 1.977-4.985 2.98-8.527 2.981 3.81-1.655 6.475-5.374 6.475-9.669 0-5.837-4.867-10.586-10.847-10.586-2.332 0-5.185 1.466-8.485 4.358-1.485 1.302-2.988 2.833-4.575 4.661l-.623.715-3.19-3.411.637-.7v-.002Zm-5.642 5.123c-1.26 1.496-3.075 3.533-5.162 5.362-3.89 3.409-6.417 4.123-7.863 4.123-5.454 0-9.903-4.326-9.903-9.643 0-5.316 4.444-9.61 9.903-9.642.198 0 .438.02.728.071 2.813 1.08 5.326 2.8 6.844 4.19 1.22 1.118 3.43 3.405 5.452 5.538v.002Zm3.21 4.808c-1.546 1.744-3.078 3.284-4.561 4.583-4.14 3.627-8.217 5.544-11.792 5.544-4.144 0-8.03-1.574-10.946-4.432-2.903-2.846-4.5-6.633-4.5-10.66 0-1.168.141-2.335.418-3.468.047-.136.62-1.7 2.246-3.22 2.117-1.977 4.986-2.98 8.528-2.981-3.81 1.655-6.475 5.374-6.475 9.668 0 5.838 4.867 10.587 10.847 10.587 2.331 0 5.185-1.466 8.485-4.358 1.485-1.302 2.988-2.833 4.575-4.661l.622-.716s3.142 3.36 3.176 3.398l-.623.716Zm5.643-5.123c1.26-1.496 3.075-3.533 5.162-5.362 3.889-3.409 6.417-4.123 7.863-4.123 5.454 0 9.903 4.326 9.903 9.642 0 5.317-4.444 9.61-9.903 9.643-.198 0-.438-.02-.73-.072.003 0 .004.002.007.003-2.816-1.079-5.331-2.802-6.85-4.192-1.22-1.118-3.431-3.405-5.453-5.538v-.002ZM87.32 20.62c.002-.005.003-.012.006-.017a.146.146 0 0 1-.006.017ZM7.24 53.42V40.096h3.59v13.325H7.24Zm14.658 0-4.624-7.912v7.912h-3.476V40.096h4.06l4.153 7.235v-7.235h3.495v13.325h-3.608Zm12.855-9.997v9.997H31.22v-9.997h-3.833v-3.327h11.22v3.327h-3.854Zm5.732 9.997V40.096h8.532v3.045H43.98v2.105h4.585v2.93H43.98v2.143h5.073v3.101h-8.57Zm11.068 0V40.096h5.619c2.706 0 4.472 1.804 4.472 4.285 0 1.804-.996 3.14-2.462 3.722l2.519 5.317h-3.815l-2.105-4.83h-.733v4.83h-3.495Zm4.962-7.535c1.053 0 1.598-.602 1.598-1.447 0-.846-.545-1.428-1.598-1.428h-1.466v2.875h1.466Zm15.522 7.535-4.623-7.912v7.912h-3.478V40.096h4.06l4.153 7.235v-7.235h3.495v13.325h-3.608.001Zm6.577 0V40.096h8.532v3.045H82.11v2.105h4.586v2.93H82.11v2.143h5.074v3.101h-8.57Zm17.934-9.997v9.997h-3.533v-9.997h-3.833v-3.327H100.4v3.327h-3.852ZM3.966 63.681c0 2.218 1.578 3.495 3.194 3.495 1.842 0 2.63-1.146 2.912-2.086l3.308.959c-.526 1.973-2.292 4.567-6.239 4.567C3.439 70.616.32 67.929.32 63.7c0-4.228 3.176-6.972 6.784-6.972 3.834 0 5.583 2.33 6.127 4.323l-3.25 1.108c-.245-.883-.96-2.048-2.839-2.048-1.503 0-3.175 1.146-3.175 3.57h-.001Zm17.382-6.953c3.665 0 6.84 2.63 6.84 6.953s-3.176 6.954-6.84 6.954c-3.663 0-6.84-2.631-6.84-6.954 0-4.322 3.177-6.953 6.84-6.953Zm0 10.505c1.56 0 3.213-1.109 3.213-3.57 0-2.463-1.654-3.533-3.213-3.533-1.558 0-3.213 1.108-3.213 3.532 0 2.425 1.654 3.57 3.213 3.57Zm20.775 3.101v-8.25l-2.912 8.25h-2.782l-2.893-8.156v8.156H30.19V57.01h4.68l2.988 8.118 2.857-8.118h4.81v13.324h-3.402Zm9.867-4.548v4.548h-3.496V57.01h5.318c2.782 0 4.68 1.823 4.68 4.397 0 2.574-1.898 4.38-4.68 4.38H51.99Zm1.37-2.912c.922 0 1.598-.545 1.598-1.447s-.676-1.466-1.597-1.466h-1.354v2.913h1.354Zm6.954 2.575V57.01h3.514v8.326c0 1.316.677 2.01 1.842 2.01s1.823-.695 1.823-2.01V57.01h3.513v8.438c0 3.345-2.236 5.187-5.336 5.187s-5.356-1.842-5.356-5.187Zm19.939-5.113v9.998h-3.532v-9.998h-3.834V57.01h11.22v3.326h-3.853Zm5.732 9.998V57.01h8.532v3.044h-5.036v2.105h4.586v2.931H89.48v2.143h5.074v3.101h-8.57Zm11.188 0V57.01h5.618c2.706 0 4.473 1.804 4.473 4.285 0 1.804-.997 3.139-2.462 3.721l2.518 5.318h-3.814l-2.105-4.83h-.733v4.83h-3.495Zm4.961-7.536c1.053 0 1.598-.601 1.598-1.447 0-.845-.545-1.428-1.598-1.428h-1.465v2.875h1.465Z"/>
  </g>
  <defs>
    <clipPath id="a">
      <path fill="#fff" d="M.32.845h107v69.79H.32z"/>
    </clipPath>
  </defs>
</svg>
